<mxfile host="65bd71144e">
    <diagram id="CKKESOLuMPZI6AiDET3T" name="Page-1">
        <mxGraphModel dx="1300" dy="1077" grid="1" gridSize="10" guides="1" tooltips="1" connect="1" arrows="1" fold="1" page="1" pageScale="1" pageWidth="850" pageHeight="1100" background="none" math="0" shadow="0">
            <root>
                <mxCell id="0"/>
                <mxCell id="1" parent="0"/>
                <mxCell id="20" value="" style="group;fontColor=#000000;" vertex="1" connectable="0" parent="1">
                    <mxGeometry x="125" y="200" width="600" height="550" as="geometry"/>
                </mxCell>
                <mxCell id="2" value="Plant" style="text;html=1;strokeColor=none;fillColor=none;align=center;verticalAlign=middle;whiteSpace=wrap;rounded=0;sketch=1;hachureGap=4;jiggle=2;curveFitting=1;fontFamily=Architects Daughter;fontSource=https%3A%2F%2Ffonts.googleapis.com%2Fcss%3Ffamily%3DArchitects%2BDaughter;fontSize=20;" vertex="1" parent="20">
                    <mxGeometry x="257.1428571428571" width="102.85714285714285" height="61.111111111111114" as="geometry"/>
                </mxCell>
                <mxCell id="3" value="" style="endArrow=none;html=1;sketch=1;hachureGap=4;jiggle=2;curveFitting=1;fontFamily=Architects Daughter;fontSource=https%3A%2F%2Ffonts.googleapis.com%2Fcss%3Ffamily%3DArchitects%2BDaughter;fontSize=16;" edge="1" parent="20">
                    <mxGeometry width="50" height="50" relative="1" as="geometry">
                        <mxPoint x="85.71428571428571" y="162.96296296296296" as="sourcePoint"/>
                        <mxPoint x="274.2857142857143" y="61.111111111111114" as="targetPoint"/>
                    </mxGeometry>
                </mxCell>
                <mxCell id="8" value="Photosynthesis system" style="text;html=1;strokeColor=none;fillColor=none;align=center;verticalAlign=middle;whiteSpace=wrap;rounded=0;sketch=1;hachureGap=4;jiggle=2;curveFitting=1;fontFamily=Architects Daughter;fontSource=https%3A%2F%2Ffonts.googleapis.com%2Fcss%3Ffamily%3DArchitects%2BDaughter;fontSize=20;" vertex="1" parent="20">
                    <mxGeometry y="170.0033333333333" width="171.42857142857142" height="61.111111111111114" as="geometry"/>
                </mxCell>
                <mxCell id="9" value="" style="endArrow=none;html=1;sketch=1;hachureGap=4;jiggle=2;curveFitting=1;fontFamily=Architects Daughter;fontSource=https%3A%2F%2Ffonts.googleapis.com%2Fcss%3Ffamily%3DArchitects%2BDaughter;fontSize=16;entryX=0.75;entryY=1;entryDx=0;entryDy=0;" edge="1" parent="20" target="2">
                    <mxGeometry width="50" height="50" relative="1" as="geometry">
                        <mxPoint x="497.1428571428571" y="162.96296296296296" as="sourcePoint"/>
                        <mxPoint x="291.4285714285714" y="81.48148148148148" as="targetPoint"/>
                    </mxGeometry>
                </mxCell>
                <mxCell id="10" value="Support system" style="text;html=1;strokeColor=none;fillColor=none;align=center;verticalAlign=middle;whiteSpace=wrap;rounded=0;sketch=1;hachureGap=4;jiggle=2;curveFitting=1;fontFamily=Architects Daughter;fontSource=https%3A%2F%2Ffonts.googleapis.com%2Fcss%3Ffamily%3DArchitects%2BDaughter;fontSize=20;" vertex="1" parent="20">
                    <mxGeometry x="480" y="170.0033333333333" width="102.85714285714285" height="61.111111111111114" as="geometry"/>
                </mxCell>
                <mxCell id="11" value="" style="endArrow=none;html=1;sketch=1;hachureGap=4;jiggle=2;curveFitting=1;fontFamily=Architects Daughter;fontSource=https%3A%2F%2Ffonts.googleapis.com%2Fcss%3Ffamily%3DArchitects%2BDaughter;fontSize=16;entryX=0.5;entryY=1;entryDx=0;entryDy=0;" edge="1" parent="20" target="2">
                    <mxGeometry width="50" height="50" relative="1" as="geometry">
                        <mxPoint x="308.57142857142856" y="285.1851851851852" as="sourcePoint"/>
                        <mxPoint x="291.4285714285714" y="81.48148148148148" as="targetPoint"/>
                    </mxGeometry>
                </mxCell>
                <mxCell id="12" value="Nutrient System" style="text;html=1;strokeColor=none;fillColor=none;align=center;verticalAlign=middle;whiteSpace=wrap;rounded=0;sketch=1;hachureGap=4;jiggle=2;curveFitting=1;fontFamily=Architects Daughter;fontSource=https%3A%2F%2Ffonts.googleapis.com%2Fcss%3Ffamily%3DArchitects%2BDaughter;fontSize=20;" vertex="1" parent="20">
                    <mxGeometry x="257.1428571428571" y="289.99555555555554" width="102.85714285714285" height="61.111111111111114" as="geometry"/>
                </mxCell>
                <mxCell id="13" value="" style="endArrow=none;html=1;sketch=1;hachureGap=4;jiggle=2;curveFitting=1;fontFamily=Architects Daughter;fontSource=https%3A%2F%2Ffonts.googleapis.com%2Fcss%3Ffamily%3DArchitects%2BDaughter;fontSize=16;entryX=0;entryY=0.75;entryDx=0;entryDy=0;" edge="1" parent="20" target="12">
                    <mxGeometry width="50" height="50" relative="1" as="geometry">
                        <mxPoint x="102.85714285714285" y="448.1481481481481" as="sourcePoint"/>
                        <mxPoint x="240" y="366.66666666666663" as="targetPoint"/>
                    </mxGeometry>
                </mxCell>
                <mxCell id="14" value="" style="endArrow=none;html=1;sketch=1;hachureGap=4;jiggle=2;curveFitting=1;fontFamily=Architects Daughter;fontSource=https%3A%2F%2Ffonts.googleapis.com%2Fcss%3Ffamily%3DArchitects%2BDaughter;fontSize=16;entryX=0.5;entryY=1;entryDx=0;entryDy=0;" edge="1" parent="20" target="12">
                    <mxGeometry width="50" height="50" relative="1" as="geometry">
                        <mxPoint x="308.57142857142856" y="488.8888888888889" as="sourcePoint"/>
                        <mxPoint x="307.7142857142857" y="387.03703703703707" as="targetPoint"/>
                    </mxGeometry>
                </mxCell>
                <mxCell id="15" value="" style="endArrow=none;html=1;sketch=1;hachureGap=4;jiggle=2;curveFitting=1;fontFamily=Architects Daughter;fontSource=https%3A%2F%2Ffonts.googleapis.com%2Fcss%3Ffamily%3DArchitects%2BDaughter;fontSize=16;entryX=1;entryY=0.75;entryDx=0;entryDy=0;" edge="1" parent="20" target="12">
                    <mxGeometry width="50" height="50" relative="1" as="geometry">
                        <mxPoint x="514.2857142857142" y="448.1481481481481" as="sourcePoint"/>
                        <mxPoint x="377.1428571428571" y="366.66666666666663" as="targetPoint"/>
                    </mxGeometry>
                </mxCell>
                <mxCell id="16" value="Storage System" style="text;html=1;strokeColor=none;fillColor=none;align=center;verticalAlign=middle;whiteSpace=wrap;rounded=0;sketch=1;hachureGap=4;jiggle=2;curveFitting=1;fontFamily=Architects Daughter;fontSource=https%3A%2F%2Ffonts.googleapis.com%2Fcss%3Ffamily%3DArchitects%2BDaughter;fontSize=20;" vertex="1" parent="20">
                    <mxGeometry x="485.0028571428571" y="449.99851851851855" width="102.85714285714285" height="61.111111111111114" as="geometry"/>
                </mxCell>
                <mxCell id="17" value="Transportation System" style="text;html=1;strokeColor=none;fillColor=none;align=center;verticalAlign=middle;whiteSpace=wrap;rounded=0;sketch=1;hachureGap=4;jiggle=2;curveFitting=1;fontFamily=Architects Daughter;fontSource=https%3A%2F%2Ffonts.googleapis.com%2Fcss%3Ffamily%3DArchitects%2BDaughter;fontSize=20;" vertex="1" parent="20">
                    <mxGeometry x="257.1428571428571" y="488.8888888888889" width="102.85714285714285" height="61.111111111111114" as="geometry"/>
                </mxCell>
                <mxCell id="18" value="Absorption System" style="text;html=1;strokeColor=none;fillColor=none;align=center;verticalAlign=middle;whiteSpace=wrap;rounded=0;sketch=1;hachureGap=4;jiggle=2;curveFitting=1;fontFamily=Architects Daughter;fontSource=https%3A%2F%2Ffonts.googleapis.com%2Fcss%3Ffamily%3DArchitects%2BDaughter;fontSize=20;" vertex="1" parent="20">
                    <mxGeometry x="34.285714285714285" y="449.9988888888889" width="102.85714285714285" height="61.111111111111114" as="geometry"/>
                </mxCell>
            </root>
        </mxGraphModel>
    </diagram>
</mxfile>